<svg xmlns="http://www.w3.org/2000/svg" xmlnsXlink="http://www.w3.org/1999/xlink" aria-hidden="true" role="img" class="iconify iconify--jam" width="32" height="32" preserveAspectRatio="xMidYMid meet" viewBox="0 0 24 24"><path d="M7 11v-1a1 1 0 1 0-2 0v1H4a1 1 0 1 0 0 2h1v1a1 1 0 1 0 2 0v-1h1a1 1 0 1 0 0-2H7zM6 6h12a6 6 0 1 1-4.472 10h-3.056A6 6 0 1 1 6 6zm12 5a1 1 0 1 0 0-2a1 1 0 0 0 0 2zm-2 2a1 1 0 1 0 0-2a1 1 0 0 0 0 2zm4 0a1 1 0 1 0 0-2a1 1 0 0 0 0 2zm-2 2a1 1 0 1 0 0-2a1 1 0 0 0 0 2z" fill="currentColor"></path></svg>