<svg id="b8bbed17-4ae4-40c7-94a5-064218f87c11" data-name="Слой 3" xmlns="http://www.w3.org/2000/svg" xmlns:xlink="http://www.w3.org/1999/xlink" viewBox="0 0 186.79 186.76"><defs><linearGradient id="f2371d5e-d664-4503-8412-0948befb4a38" x1="66.43" y1="59.51" x2="167.74" y2="147.44" gradientUnits="userSpaceOnUse"><stop offset="0" stop-color="#56cbf5"/><stop offset="1" stop-color="#0a679d"/></linearGradient><linearGradient id="aa67a174-03be-44ee-b103-6f76a9c42c20" x1="49.82" y1="78.66" x2="151.13" y2="166.59" xlink:href="#f2371d5e-d664-4503-8412-0948befb4a38"/><linearGradient id="b437f371-c58f-4104-b3ca-cf0aa0b14842" x1="64.04" y1="62.27" x2="165.35" y2="150.2" xlink:href="#f2371d5e-d664-4503-8412-0948befb4a38"/><linearGradient id="bb7e81dd-9d86-48da-bc08-847e774b5d11" x1="7.95" y1="126.91" x2="109.26" y2="214.83" xlink:href="#f2371d5e-d664-4503-8412-0948befb4a38"/><linearGradient id="bb359774-04a7-4f90-8f9d-131ba74b4b7e" x1="73.08" y1="51.86" x2="174.39" y2="139.78" xlink:href="#f2371d5e-d664-4503-8412-0948befb4a38"/><linearGradient id="f022c2c9-3a85-4d65-aa47-aa45e86ff250" x1="79.3" y1="44.69" x2="180.61" y2="132.61" xlink:href="#f2371d5e-d664-4503-8412-0948befb4a38"/><linearGradient id="ee65b445-9e7b-4520-a175-6774eac10c06" x1="84.74" y1="38.42" x2="186.05" y2="126.34" xlink:href="#f2371d5e-d664-4503-8412-0948befb4a38"/><linearGradient id="f10e38d3-b2d4-4f24-bf3a-449fda190fc2" x1="41.74" y1="87.97" x2="143.05" y2="175.9" xlink:href="#f2371d5e-d664-4503-8412-0948befb4a38"/><linearGradient id="b150f3e7-91a6-4bce-ae59-c9add73f8a0a" x1="11.88" y1="122.37" x2="113.19" y2="210.29" xlink:href="#f2371d5e-d664-4503-8412-0948befb4a38"/><linearGradient id="aa383af6-2265-4b85-adf8-3f4d40cc4eae" x1="30.64" y1="100.76" x2="131.95" y2="188.68" xlink:href="#f2371d5e-d664-4503-8412-0948befb4a38"/><linearGradient id="b2409e26-a43b-47ed-9a4c-353e60bffa57" x1="102.18" y1="18.33" x2="203.49" y2="106.25" xlink:href="#f2371d5e-d664-4503-8412-0948befb4a38"/><linearGradient id="b504267c-f96a-4eb3-9548-4fa22a98af93" x1="96.86" y1="24.46" x2="198.17" y2="112.38" xlink:href="#f2371d5e-d664-4503-8412-0948befb4a38"/><linearGradient id="ba76e99b-eb4c-4b85-ab79-3c44e58a9604" x1="100.04" y1="20.79" x2="201.35" y2="108.71" xlink:href="#f2371d5e-d664-4503-8412-0948befb4a38"/><linearGradient id="a52ff3ad-1665-409d-8c05-3c8bf76d363e" x1="5.04" y1="130.26" x2="106.35" y2="218.18" xlink:href="#f2371d5e-d664-4503-8412-0948befb4a38"/><linearGradient id="bf836cf7-5523-4081-b24f-3e10341911d8" x1="18.79" y1="114.41" x2="120.1" y2="202.33" xlink:href="#f2371d5e-d664-4503-8412-0948befb4a38"/><linearGradient id="b8d4f6f3-eeea-4b32-87ac-3a87d97eda45" x1="87.87" y1="34.82" x2="189.18" y2="122.74" xlink:href="#f2371d5e-d664-4503-8412-0948befb4a38"/><linearGradient id="b5ac1380-edcf-4a90-8f92-713243988769" x1="100.53" y1="20.22" x2="201.84" y2="108.15" xlink:href="#f2371d5e-d664-4503-8412-0948befb4a38"/><linearGradient id="aafc481e-5890-40a9-94a9-d6b90eb9af73" x1="89.33" y1="33.13" x2="190.64" y2="121.05" xlink:href="#f2371d5e-d664-4503-8412-0948befb4a38"/><linearGradient id="a4507c52-7be5-42a2-9859-f73c84f6f964" x1="103.31" y1="17.02" x2="204.62" y2="104.94" xlink:href="#f2371d5e-d664-4503-8412-0948befb4a38"/><linearGradient id="b14e508e-fde8-4033-9196-c79dbd274a4b" x1="97.6" y1="23.6" x2="198.91" y2="111.52" xlink:href="#f2371d5e-d664-4503-8412-0948befb4a38"/><linearGradient id="a899473d-ebc9-47f0-ac9c-234c62479159" x1="102.45" y1="18.02" x2="203.76" y2="105.94" xlink:href="#f2371d5e-d664-4503-8412-0948befb4a38"/><linearGradient id="e519e16b-ac3e-4933-be03-3ea23072ded1" x1="92.81" y1="29.12" x2="194.12" y2="117.05" xlink:href="#f2371d5e-d664-4503-8412-0948befb4a38"/><linearGradient id="be84cda7-9e48-420d-812b-9a09f0934843" x1="62.31" y1="64.27" x2="163.62" y2="152.19" xlink:href="#f2371d5e-d664-4503-8412-0948befb4a38"/><linearGradient id="a403a011-0341-4788-a0da-8f770cc674aa" x1="93.66" y1="28.15" x2="194.97" y2="116.07" xlink:href="#f2371d5e-d664-4503-8412-0948befb4a38"/><linearGradient id="e983ec3c-cb5f-40fd-b452-bf0d6f3602ab" x1="82.28" y1="41.25" x2="183.59" y2="129.17" xlink:href="#f2371d5e-d664-4503-8412-0948befb4a38"/><linearGradient id="a5881826-0cb5-495c-af2b-343b36310472" x1="76.14" y1="48.34" x2="177.45" y2="136.26" xlink:href="#f2371d5e-d664-4503-8412-0948befb4a38"/><linearGradient id="a09d44c6-5d1f-4ec0-b3aa-4c1fa94b7a58" x1="69.42" y1="56.07" x2="170.73" y2="143.99" xlink:href="#f2371d5e-d664-4503-8412-0948befb4a38"/><linearGradient id="a2f1e921-a054-40a1-90e1-f39785375699" x1="103.25" y1="17.09" x2="204.56" y2="105.01" xlink:href="#f2371d5e-d664-4503-8412-0948befb4a38"/><linearGradient id="a6eb9651-3fbb-44b8-a673-7609bfa5e601" x1="11.75" y1="122.52" x2="113.06" y2="210.44" xlink:href="#f2371d5e-d664-4503-8412-0948befb4a38"/><linearGradient id="f47c7f1c-0c33-4e7c-8fd4-f8d2065e5a05" x1="59.08" y1="67.99" x2="160.39" y2="155.91" xlink:href="#f2371d5e-d664-4503-8412-0948befb4a38"/><linearGradient id="acff8201-4990-402d-92bc-c5f776fe19f0" x1="46.75" y1="82.2" x2="148.06" y2="170.12" xlink:href="#f2371d5e-d664-4503-8412-0948befb4a38"/><linearGradient id="f6a26f93-54e4-49e3-9871-a7b54423495b" x1="2.19" y1="133.54" x2="103.5" y2="221.47" xlink:href="#f2371d5e-d664-4503-8412-0948befb4a38"/><linearGradient id="bd6e8ed3-6b7b-4cba-8bca-6dea40700ba2" x1="39.64" y1="90.39" x2="140.95" y2="178.31" xlink:href="#f2371d5e-d664-4503-8412-0948befb4a38"/><linearGradient id="fb5c90b9-2472-489f-b3c6-c72970400ec0" x1="7.82" y1="127.05" x2="109.13" y2="214.97" xlink:href="#f2371d5e-d664-4503-8412-0948befb4a38"/><linearGradient id="efe39cef-266a-4ff1-8580-977308ee2907" x1="4.92" y1="130.4" x2="106.23" y2="218.32" xlink:href="#f2371d5e-d664-4503-8412-0948befb4a38"/><linearGradient id="bcd97247-0a32-42e4-998f-93092ea97367" x1="3.08" y1="132.52" x2="104.39" y2="220.44" xlink:href="#f2371d5e-d664-4503-8412-0948befb4a38"/><linearGradient id="b6187819-c66a-4ff3-83e6-57ab6194ce4b" x1="16.31" y1="117.27" x2="117.62" y2="205.19" xlink:href="#f2371d5e-d664-4503-8412-0948befb4a38"/><linearGradient id="ae65f923-2a92-4ae3-a0d5-bc0096ae066e" x1="2.21" y1="133.51" x2="103.52" y2="221.44" xlink:href="#f2371d5e-d664-4503-8412-0948befb4a38"/><linearGradient id="bf132d2c-197f-4599-9d9e-3b66bf8fca4e" x1="21.08" y1="111.78" x2="122.39" y2="199.7" xlink:href="#f2371d5e-d664-4503-8412-0948befb4a38"/><linearGradient id="bed58b96-ebc6-4235-b5d3-dd3993ee9e42" x1="55.12" y1="72.55" x2="156.43" y2="160.47" xlink:href="#f2371d5e-d664-4503-8412-0948befb4a38"/><linearGradient id="f44ec876-95f9-4a1d-8aa7-a6818358bb84" x1="3.13" y1="132.46" x2="104.44" y2="220.38" xlink:href="#f2371d5e-d664-4503-8412-0948befb4a38"/><linearGradient id="a1ca02ea-f42d-4445-8a4c-b447be3b0136" x1="32.87" y1="98.19" x2="134.18" y2="186.11" xlink:href="#f2371d5e-d664-4503-8412-0948befb4a38"/><linearGradient id="ea1643eb-e446-4c06-a716-3fe20c987608" x1="26.42" y1="105.62" x2="127.73" y2="193.54" xlink:href="#f2371d5e-d664-4503-8412-0948befb4a38"/></defs><title>photon-engine</title><path d="M67.46,71a58.77,58.77,0,0,1,4.91-3.33L56.1,40a96.89,96.89,0,0,0-8.68,5.92Z" transform="translate(-10.86 -26.62)" fill="url(#f2371d5e-d664-4503-8412-0948befb4a38)"/><path d="M53.84,85.17a61.86,61.86,0,0,1,4.52-5.78L34.79,57.6a93.73,93.73,0,0,0-7.52,9.53Z" transform="translate(-10.86 -26.62)" fill="url(#aa67a174-03be-44ee-b103-6f76a9c42c20)"/><path d="M47.26,46c-.69.53-1.36,1.07-2,1.62Z" transform="translate(-10.86 -26.62)" fill="url(#b437f371-c58f-4104-b3ca-cf0aa0b14842)"/><path d="M47.94,144.24q-1.14-2.64-2-5.41L15,147.42a94.56,94.56,0,0,0,3.58,9.71Z" transform="translate(-10.86 -26.62)" fill="url(#bb7e81dd-9d86-48da-bc08-847e774b5d11)"/><path d="M75,66.11c1.46-.79,2.94-1.55,4.48-2.23L67.24,34.25a92.7,92.7,0,0,0-8.48,4.19Z" transform="translate(-10.86 -26.62)" fill="url(#bb359774-04a7-4f90-8f9d-131ba74b4b7e)"/><path d="M82.38,62.75c1.78-.68,3.61-1.27,5.47-1.79L79.9,29.83a91,91,0,0,0-9.82,3.23Z" transform="translate(-10.86 -26.62)" fill="url(#f022c2c9-3a85-4d65-aa47-aa45e86ff250)"/><path d="M90.82,60.16c1.46-.33,3-.57,4.46-.79L91.16,27.53c-2.8.39-5.57.89-8.29,1.53Z" transform="translate(-10.86 -26.62)" fill="url(#ee65b445-9e7b-4520-a175-6774eac10c06)"/><path d="M49.28,92.83c.86-1.75,1.82-3.46,2.84-5.12l-26.56-18a89.91,89.91,0,0,0-5.11,9.1Z" transform="translate(-10.86 -26.62)" fill="url(#f10e38d3-b2d4-4f24-bf3a-449fda190fc2)"/><path d="M45.07,135.88q-.78-2.94-1.28-6l-31.9,3.87a92.68,92.68,0,0,0,2.22,10.7Z" transform="translate(-10.86 -26.62)" fill="url(#b150f3e7-91a6-4bce-ae59-c9add73f8a0a)"/><path d="M43.75,110c.31-1.92.73-3.81,1.22-5.68L14.42,94.77l.92-2.93,30.51,9.56A61.34,61.34,0,0,1,48,95.64l-28.9-14.1a92.64,92.64,0,0,0-7,23.34Z" transform="translate(-10.86 -26.62)" fill="url(#aa383af6-2265-4b85-adf8-3f4d40cc4eae)"/><path d="M152.35,82c1.17,1.47,2.26,3,3.29,4.58l27.2-17.09a93.61,93.61,0,0,0-6-8.27Z" transform="translate(-10.86 -26.62)" fill="url(#b2409e26-a43b-47ed-9a4c-353e60bffa57)"/><path d="M161.39,97.83c.67,1.72,1.25,3.47,1.77,5.27l31-8.6a91.68,91.68,0,0,0-3.3-9.58Z" transform="translate(-10.86 -26.62)" fill="url(#b504267c-f96a-4eb3-9548-4fa22a98af93)"/><path d="M157.31,89.18A59.38,59.38,0,0,1,160.26,95l29.37-12.88a92.14,92.14,0,0,0-5.19-10Z" transform="translate(-10.86 -26.62)" fill="url(#ba76e99b-eb4c-4b85-ab79-3c44e58a9604)"/><path d="M51.86,151.83c-1-1.55-1.81-3.16-2.62-4.8l-29.42,12.9a92.35,92.35,0,0,0,4.88,9Z" transform="translate(-10.86 -26.62)" fill="url(#a52ff3ad-1665-409d-8c05-3c8bf76d363e)"/><path d="M42.93,121.05,11,120.35l.06-3.07L43,118c.06-1.65.17-3.29.35-4.91l-31.72-5.15a95.05,95.05,0,0,0-.76,9.91,93.17,93.17,0,0,0,.61,12.89l31.84-3.86C43.11,124.91,43,123,42.93,121.05Z" transform="translate(-10.86 -26.62)" fill="url(#bf836cf7-5523-4081-b24f-3e10341911d8)"/><path d="M197.63,121.38a93.74,93.74,0,0,0-.39-10.09l-31.91,3.87c.15,1.85.23,3.69.21,5.52Z" transform="translate(-10.86 -26.62)" fill="url(#b8d4f6f3-eeea-4b32-87ac-3a87d97eda45)"/><path d="M123.36,61.77a56.13,56.13,0,0,1,5.25,2l13.55-29.14A93.93,93.93,0,0,0,132.63,31Z" transform="translate(-10.86 -26.62)" fill="url(#b5ac1380-edcf-4a90-8f92-713243988769)"/><path d="M98.33,59c1.45-.15,2.89-.29,4.33-.33v-32q-4.27.07-8.45.53Z" transform="translate(-10.86 -26.62)" fill="url(#aafc481e-5890-40a9-94a9-d6b90eb9af73)"/><path d="M139.26,69.7c1.55,1.08,3,2.23,4.49,3.45l21.1-24.22a94.86,94.86,0,0,0-8.14-6.2Z" transform="translate(-10.86 -26.62)" fill="url(#a4507c52-7be5-42a2-9859-f73c84f6f964)"/><path d="M114.37,59.51a61.2,61.2,0,0,1,6.07,1.32l9.26-30.72a93.7,93.7,0,0,0-10.77-2.34Z" transform="translate(-10.86 -26.62)" fill="url(#b14e508e-fde8-4033-9196-c79dbd274a4b)"/><path d="M131.41,65c1.82.9,3.6,1.89,5.31,3L154.15,41a94.7,94.7,0,0,0-9.21-5.1Z" transform="translate(-10.86 -26.62)" fill="url(#a899473d-ebc9-47f0-ac9c-234c62479159)"/><path d="M164,106.06c.46,2,.81,4,1.08,6l31.84-3.87a91,91,0,0,0-2-10.75Z" transform="translate(-10.86 -26.62)" fill="url(#e519e16b-ac3e-4933-be03-3ea23072ded1)"/><path d="M158.09,149.3q-1.32,2.41-2.83,4.7l26.55,18a90.22,90.22,0,0,0,5.16-8.63Z" transform="translate(-10.86 -26.62)" fill="url(#be84cda7-9e48-420d-812b-9a09f0934843)"/><path d="M105.73,58.74c1.88,0,3.75.17,5.59.38l4.57-31.8q-4.67-.59-9.46-.7h-.7Z" transform="translate(-10.86 -26.62)" fill="url(#a403a011-0341-4788-a0da-8f770cc674aa)"/><path d="M165.46,123.75c-.12,2-.34,4-.65,5.93l31.65,5.14a93.13,93.13,0,0,0,1.06-10.37Z" transform="translate(-10.86 -26.62)" fill="url(#e983ec3c-cb5f-40fd-b452-bf0d6f3602ab)"/><path d="M164.23,132.69c-.39,1.82-.84,3.6-1.38,5.36l30.62,9.59a93,93,0,0,0,2.46-9.8Z" transform="translate(-10.86 -26.62)" fill="url(#a5881826-0cb5-495c-af2b-343b36310472)"/><path d="M161.87,141q-1.05,2.86-2.37,5.61l28.85,14.06a91.92,91.92,0,0,0,4.18-10.07Z" transform="translate(-10.86 -26.62)" fill="url(#a09d44c6-5d1f-4ec0-b3aa-4c1fa94b7a58)"/><path d="M146.08,75.14a59.45,59.45,0,0,1,4.36,4.48l24.44-20.74a93,93,0,0,0-7.73-7.9Z" transform="translate(-10.86 -26.62)" fill="url(#a2f1e921-a054-40a1-90e1-f39785375699)"/><path d="M102.66,181.26c-1.93,0-3.83-.19-5.72-.41l-4.56,31.8a96.63,96.63,0,0,0,9.7.73h.58Z" transform="translate(-10.86 -26.62)" fill="url(#a6eb9651-3fbb-44b8-a673-7609bfa5e601)"/><path d="M60.44,77.13a59.8,59.8,0,0,1,4.61-4.25L45,47.82a95,95,0,0,0-8.15,7.51Z" transform="translate(-10.86 -26.62)" fill="url(#f47c7f1c-0c33-4e7c-8fd4-f8d2065e5a05)"/><path d="M148.35,162.61c-1.38,1.43-2.84,2.8-4.36,4.09l20,25.05a94.52,94.52,0,0,0,7.89-7.35Z" transform="translate(-10.86 -26.62)" fill="url(#acff8201-4990-402d-92bc-c5f776fe19f0)"/><path d="M63.22,165.53A58.89,58.89,0,0,1,59,161.29L34.48,182.06a95.33,95.33,0,0,0,7.65,7.66Z" transform="translate(-10.86 -26.62)" fill="url(#f6a26f93-54e4-49e3-9871-a7b54423495b)"/><path d="M141.59,168.61q-2.15,1.65-4.43,3.1l16.28,27.68a94.43,94.43,0,0,0,8.2-5.7Z" transform="translate(-10.86 -26.62)" fill="url(#bd6e8ed3-6b7b-4cba-8bca-6dea40700ba2)"/><path d="M93.89,180.46q-3-.51-5.9-1.31l-9.26,30.72a92.6,92.6,0,0,0,10.61,2.32Z" transform="translate(-10.86 -26.62)" fill="url(#fb5c90b9-2472-489f-b3c6-c72970400ec0)"/><path d="M85.06,178.2q-2.73-.9-5.34-2L66.16,205.3A91.35,91.35,0,0,0,75.79,209Z" transform="translate(-10.86 -26.62)" fill="url(#efe39cef-266a-4ff1-8580-977308ee2907)"/><path d="M76.91,174.9c-1.44-.72-2.83-1.52-4.2-2.35l-17.45,27q3.95,2.43,8.13,4.47Z" transform="translate(-10.86 -26.62)" fill="url(#bcd97247-0a32-42e4-998f-93092ea97367)"/><path d="M111,180.93c-1.76.2-3.52.36-5.26.4v32a93.89,93.89,0,0,0,9.38-.61Z" transform="translate(-10.86 -26.62)" fill="url(#b6187819-c66a-4ff3-83e6-57ab6194ce4b)"/><path d="M70.12,170.9c-1.58-1.06-3.1-2.18-4.57-3.38l-21.09,24.2a91.35,91.35,0,0,0,8.22,6.13Z" transform="translate(-10.86 -26.62)" fill="url(#ae65f923-2a92-4ae3-a0d5-bc0096ae066e)"/><path d="M118.2,179.74c-1.36.32-2.76.52-4.16.75l4.12,31.86q4.05-.6,8-1.54Z" transform="translate(-10.86 -26.62)" fill="url(#bf132d2c-197f-4599-9d9e-3b66bf8fca4e)"/><path d="M153.49,156.52c-1,1.31-2,2.57-3.09,3.8L174,182.12a92.89,92.89,0,0,0,6.09-7.57Z" transform="translate(-10.86 -26.62)" fill="url(#bed58b96-ebc6-4235-b5d3-dd3993ee9e42)"/><path d="M57,159c-1.21-1.47-2.35-3-3.43-4.56L26.34,171.49a95.21,95.21,0,0,0,6.14,8.24Z" transform="translate(-10.86 -26.62)" fill="url(#f44ec876-95f9-4a1d-8aa7-a6818358bb84)"/><path d="M134.55,173.34Q132,174.78,129.3,176l12.27,29.62a91.58,91.58,0,0,0,9.24-4.63Z" transform="translate(-10.86 -26.62)" fill="url(#a1ca02ea-f42d-4445-8a4c-b447be3b0136)"/><path d="M126.44,177.13q-2.58,1-5.28,1.77l8,31.14a90.63,90.63,0,0,0,9.63-3.22Z" transform="translate(-10.86 -26.62)" fill="url(#ea1643eb-e446-4c06-a716-3fe20c987608)"/></svg>