<?xml version="1.0" encoding="utf-8"?><svg version="1.1" xmlnsCc="http://creativecommons.org/ns#" xmlnsDc="http://purl.org/dc/elements/1.1/" xmlnsRdf="http://www.w3.org/1999/02/22-rdf-syntax-ns#" xmlns="http://www.w3.org/2000/svg" xmlnsXlink="http://www.w3.org/1999/xlink" x="0px" y="0px" viewBox="0 0 181 155.8" style="enable-background:new 0 0 181 155.8" xmlSpace="preserve"><g transform="translate(-166.32586,-222.11295)"><path d="M334.8,339.5c-9.1,4.7-56.1,24.1-66.1,29.3c-10,5.2-15.6,5.2-23.5,1.4c-7.9-3.8-58-24-67-28.3
		c-4.5-2.2-6.9-4-6.9-5.7V319c0,0,65.2-14.2,75.7-18c10.5-3.8,14.2-3.9,23.1-0.6c9,3.3,62.5,12.9,71.3,16.2c0,0,0,15.4,0,17
		C341.4,335.3,339.4,337.1,334.8,339.5L334.8,339.5z" style="fill:#A41E11"/><path d="M334.8,322.3c-9.1,4.7-56.1,24.1-66.1,29.3c-10,5.2-15.6,5.2-23.5,1.4c-7.9-3.8-58-24-67-28.3
		c-9-4.3-9.2-7.3-0.3-10.7c8.9-3.5,58.6-23,69.1-26.8c10.5-3.8,14.2-3.9,23.1-0.6c9,3.3,55.7,21.9,64.5,25.1
		C343.5,314.9,343.8,317.6,334.8,322.3L334.8,322.3z" style="fill:#D82C20"/><path d="M334.8,311.5c-9.1,4.7-56.1,24.1-66.1,29.3c-10,5.2-15.6,5.2-23.5,1.4c-7.9-3.8-58-24-67-28.3
		c-4.5-2.2-6.9-4-6.9-5.7V291c0,0,65.2-14.2,75.7-18c10.5-3.8,14.2-3.9,23.1-0.6c9,3.3,62.5,12.9,71.3,16.2c0,0,0,15.4,0,17
		C341.4,307.2,339.4,309.1,334.8,311.5z" style="fill:#A41E11"/><path d="M334.8,294.3c-9.1,4.7-56.1,24.1-66.1,29.3c-10,5.2-15.6,5.2-23.5,1.4c-7.9-3.8-58-24-67-28.3
		c-9-4.3-9.2-7.3-0.3-10.7c8.9-3.5,58.6-23,69.1-26.8c10.5-3.8,14.2-3.9,23.1-0.6c9,3.3,55.7,21.9,64.5,25.1
		C343.5,286.9,343.8,289.6,334.8,294.3L334.8,294.3z" style="fill:#D82C20"/><path d="M334.8,282.4c-9.1,4.7-56.1,24.1-66.1,29.3c-10,5.2-15.6,5.2-23.5,1.4c-7.9-3.8-58-24-67-28.3
		c-4.5-2.2-6.9-4-6.9-5.7v-17.2c0,0,65.2-14.2,75.7-18c10.5-3.8,14.2-3.9,23.1-0.6c9,3.3,62.5,12.9,71.3,16.2c0,0,0,15.4,0,17
		C341.4,278.1,339.4,280,334.8,282.4L334.8,282.4z" style="fill:#A41E11"/><path d="M334.8,265.2c-9.1,4.7-56.1,24.1-66.1,29.3c-10,5.2-15.6,5.2-23.5,1.4c-7.9-3.8-58-24-67-28.3
		c-9-4.3-9.2-7.3-0.3-10.7c8.9-3.5,58.6-23,69.1-26.8c10.5-3.8,14.2-3.9,23.1-0.6c9,3.3,55.7,21.9,64.5,25.1
		C343.5,257.8,343.8,260.5,334.8,265.2L334.8,265.2z" style="fill:#D82C20"/><polygon points="278.7,248.7 263.9,250.2 260.6,258.1 255.3,249.3 238.3,247.7 251,243.2 247.2,236.1 259.1,240.8 
		270.3,237.1 267.2,244.4 	" style="fill:#FFFFFF"/><polygon points="259.8,287.2 232.2,275.8 271.7,269.7 	" style="fill:#FFFFFF"/><ellipse cx="221.6" cy="261.2" rx="21.1" ry="8.2" style="fill:#FFFFFF"/><polygon points="296.1,250.8 319.4,260.1 296.1,269.3 	" style="fill:#7A0C00"/><polygon points="270.3,261 296.1,250.8 296.1,269.3 293.6,270.3 	" style="fill:#AD2115"/></g></svg>