<svg id="a629635e-7012-48ef-8af2-d0191fd3268f" data-name="Слой 1" xmlns="http://www.w3.org/2000/svg" viewBox="0 0 205.29 231.23"><title>tauri</title><path d="M143.1,84a22,22,0,1,1-22-22A22,22,0,0,1,143.1,84Z" transform="translate(0.03 0.15)" fill="#ffc131"/><circle cx="84.13" cy="147.15" r="22" fill="#24c8db"/><path d="M166.7,154.5a83.89,83.89,0,0,1-29,11.8,59.07,59.07,0,0,0,2.9-26.6A59,59,0,1,0,73.2,49.6,98,98,0,0,0,41,59a84,84,0,1,1,125.7,95.5ZM42,74.3l20.6,2.5a59.25,59.25,0,0,1,2.6-11.7A84,84,0,0,0,42,74.3Z" transform="translate(0.03 0.15)" fill="#ffc131" fill-rule="evenodd"/><path d="M38.4,76.5A84.06,84.06,0,0,1,67.6,64.6a58.89,58.89,0,0,0-3.3,26.7,59,59,0,1,0,67.7,90,97.94,97.94,0,0,0,32.2-9.3A84,84,0,1,1,38.4,76.5Zm124.7,80.2-.4.2Z" transform="translate(0.03 0.15)" fill="#24c8db" fill-rule="evenodd"/></svg>