<?xml version="1.0" encoding="utf-8"?><svg version="1.1" xmlns="http://www.w3.org/2000/svg" xmlnsXlink="http://www.w3.org/1999/xlink" x="0px" y="0px" viewBox="0 0 2194 2500" style="enable-background:new 0 0 2194 2500" xmlSpace="preserve"><g><g><path d="M1100.7,537.4c23.2-21.1,47.2-44,72.2-65.8c76.3-66.1,157.2-125.6,252.6-161.3c35-13.1,72.6-22.2,109.8-26.2
			c100.3-10.8,153.8,42.5,185.9,118.4c20.9,49.5,29.3,102,31.8,155.1c5,105.5-8.7,209.2-34.4,311.4c-1.8,7.1-3.2,14.2-4.6,21.4
			c-0.2,1.2,0.5,2.6,1,4.7c42.2,14.1,85.3,27.2,127.5,42.8c95.4,35.3,185.8,79.9,261.7,149.3c35.3,32.2,64.9,68.9,78.7,115.6
			c18.8,63.6-3.7,117.5-42.7,166.3c-51.8,64.7-119,110.8-193.2,144.8c-66.8,30.6-136.8,54.3-205.5,80.9c-7.3,2.8-14.8,5.2-22.8,8
			c8.4,41.2,18,81,24.6,121.3c18.7,114.8,25.3,229.6-10.1,342.8c-14.3,45.7-36.3,87.4-76.3,116.4c-52.9,38.5-112,37.2-172,22.9
			c-89.7-21.4-167.7-67.1-239.8-122.5c-49.5-38-95.9-79.9-145.1-121.2c-27.5,24.5-55.9,51.3-85.8,76.2
			c-82.3,68.6-170.7,126.9-274.1,159.4c-44.5,14-90.1,20-135.9,12.7c-66-10.5-106.4-53.5-131.7-112.6
			c-30.5-71.3-34.6-146.5-32.8-222.7c2-84,16.6-166.1,37.6-247.2c4.3-16.5,1.6-22.6-15.5-27.4c-101-28.1-197.7-66.8-286.1-124
			c-44.9-29.1-86.2-62.4-119.8-104.5c-71.2-89.5-67.5-179,11-263.3C131.1,1040,211,993.9,297.1,958.6
			c53.9-22.1,109.9-39.4,165.5-57.3c16.2-5.2,20.2-10.7,15.8-27.6c-28.2-108.4-44.2-218.5-37.4-330.8c3.4-57.3,14-113.3,41.1-164.8
			c40.3-76.4,106.5-102.3,186.6-92.1c102,13,189.2,61.4,270.2,120.7C994,447,1045.4,492.4,1100.7,537.4z M1094.6,1641.8
			c68.6-3.2,137-6.8,205.5-9.2c14.5-0.5,23-6,30.6-17.6c74.4-112.7,141.5-229.5,201.6-350.4c6.3-12.8,6.6-22.9-0.4-35
			c-59.7-103.5-120.1-206.6-178.1-311.1c-21.3-38.3-46.6-55-93.4-56.8c-121.9-4.5-243.5-4-365.1,3.3c-9.7,0.6-22.3,7.1-27.7,14.9
			c-77.5,113-146.5,231.1-205.2,355c-3.6,7.7-3.6,20,0,27.7c59.1,124.4,128.8,242.9,206.8,356.4c4.7,6.8,15.7,12.4,24.1,12.9
			C960.2,1635.9,1027.4,1638.6,1094.6,1641.8z M488.9,1572.3c2.8-4.3,4.2-5.9,4.9-7.6c39.1-102,78.3-204,116.8-306.3
			c2.4-6.5,1-15.7-1.6-22.6c-36.9-97.2-74.5-194.2-111.1-291.5c-4.4-11.7-9.2-14.2-20.2-11.2c-102.8,28.8-202.2,65.5-292.4,123.7
			c-45.5,29.4-87.2,63.3-117.7,109c-33.8,50.8-36.5,102.9-4.1,154.9c11.9,19,25.6,37.5,41.5,53.2
			C212.1,1479.8,347.4,1531.1,488.9,1572.3z M1075.7,1938.1c-1-1.9-2-3.8-3-5.7c-0.5-1.2-0.8-2.6-1.6-3.6
			c-68.9-84.4-137.8-168.9-207.3-252.8c-4.7-5.6-14-9.1-21.7-10.3c-102.3-15.6-204.8-30.2-307-46.3c-15.1-2.4-20,1.7-23.3,15
			c-24.8,100.2-42.1,201.4-36.9,305.1c2.7,53.8,11.1,106.9,35.3,156.1c22.3,45.2,56.1,76.8,107.8,81.2c26.7,2.3,54.8,0.2,81-5.3
			c91.1-19.3,169.4-65.8,242.4-121.1C987.9,2015.1,1031.1,1975.6,1075.7,1938.1z M1723.6,1884.8c-1.1-14.9-1.1-33.7-3.9-52
			c-10.6-68.6-22-137.1-33.2-205.6c-1.8-11.1-7.8-15.6-19.6-12.7c-101.5,24.7-204.5,40-308.5,48.4c-13.7,1.1-22,7.8-30.5,18.7
			c-62.7,80-126,159.5-189.9,238.5c-8.5,10.5-10.2,16.8,0.6,25.8c48.9,40.9,95.9,84.3,146.7,122.8c62.8,47.6,131.8,84.7,209.3,103.7
			c101.5,24.8,166-9.8,201.7-107.7C1717,2007.5,1720.9,1948.1,1723.6,1884.8z M1071.9,567.4c-4.4-5.1-7.2-9.6-11.2-12.9
			c-52.1-43.2-102.6-88.7-157.1-128.7c-66.8-48.9-139.7-87.9-222.7-102.2c-83.7-14.4-143.4,6.6-179,96.5
			c-19,48.2-25.5,98.8-27,149.9c-2.9,94.1,11.6,186.3,33.7,277.4c3,12.5,6.8,24.9,10.3,37.7c10.7-2.3,18.4-4.2,26.2-5.5
			c94.3-15.1,188.4-31.2,283-44.1c20.9-2.8,32.5-10.4,44.9-26.1c59-74.4,119.4-147.6,179.5-221.2
			C1058.4,581.2,1065,574.8,1071.9,567.4z M1676.2,885.7c1.8-5.3,3.6-9.4,4.7-13.8c28.2-111.9,45.6-225,34.3-340.7
			c-5.1-51.7-15.8-102.2-43.4-147.6c-26.7-44.1-65.8-69.6-117.2-65.1c-39.8,3.5-80.5,11.7-117.7,25.8
			c-95.3,35.9-175.4,96.7-251,163.6c-20.8,18.4-40.7,37.8-61.1,56.9c2.7,4.3,3.8,6.7,5.4,8.6c67.3,83.2,134.4,166.5,202.2,249.2
			c5.1,6.2,15.1,10.3,23.3,11.5c64.4,9.2,129,16.5,193.3,26.5C1591.3,867,1633.2,877,1676.2,885.7z M1703.5,931.1
			c-2.6,7.1-4.7,13.2-7,19.2c-35.6,92-70.7,184.3-107.4,275.9c-6.3,15.8-5.5,27.5,0.7,42.8c38,93.9,74.8,188.3,112,282.6
			c1.9,4.8,4.2,9.4,6.4,14.2c5-0.7,9.1-0.7,12.8-1.8c98.6-28.6,193.8-65.6,280.5-121.4c52.4-33.7,100.8-72.1,132.2-127.4
			c15.7-27.7,24.3-57.2,17.7-89.6c-7.8-38.6-29.6-69.1-56.2-96.8c-47.7-49.5-105.4-84.8-166.5-115.1
			C1857.3,978.2,1782.4,951.9,1703.5,931.1z M1674.6,1571.9c-36.5-93.5-72.7-186.4-110.2-282.5c-66.5,115.5-129.7,225.4-192.8,335
			C1422.7,1626.7,1637.5,1590.8,1674.6,1571.9z M1291.1,1672c-129.4,0-255.1,0-384.9,0c60,84.3,123.8,161.6,194.7,235.7
			C1171.3,1833.5,1232.6,1755.6,1291.1,1672z M828.2,1631.7c-66.8-115-130.3-224.2-195.1-335.4c-41.6,93.1-78.3,186.2-107.1,289
			C627.9,1600.9,726.3,1616.1,828.2,1631.7z M1667,921.9c-98.8-25.3-196.9-40.1-297.1-50.4c64.7,111.1,127.8,219.4,191.9,329.6
			C1603.2,1110.2,1639.4,1018.9,1667,921.9z M1289.5,824.8c-59.7-82.3-120.7-160.2-191.6-232.2c-70.8,74.1-133.8,150.4-191.9,232.2
			C1034.7,824.8,1160.1,824.8,1289.5,824.8z M824.5,870.9c-100.4,11.6-198.4,24.5-296.2,50.2c28.9,97.6,63.3,189.8,105.1,280
			C697.5,1090.4,760,982.3,824.5,870.9z" style="fill:#474747"/><path d="M1094.6,1641.8c-67.2-3.1-134.4-5.8-201.4-9.9c-8.4-0.5-19.4-6.1-24.1-12.9c-78-113.5-147.7-232-206.8-356.4
			c-3.6-7.7-3.6-20,0-27.7c58.8-123.9,127.7-242,205.2-355c5.4-7.8,18-14.3,27.7-14.9c121.6-7.4,243.2-7.8,365.1-3.3
			c46.9,1.7,72.1,18.4,93.4,56.8c58,104.5,118.3,207.6,178.1,311.1c7,12.1,6.8,22.2,0.4,35c-60.1,120.9-127.2,237.7-201.6,350.4
			c-7.7,11.6-16.1,17.1-30.6,17.6C1231.6,1634.9,1163.1,1638.6,1094.6,1641.8z M1294.6,1246.2c-0.2-110.5-87-197-197.7-196.8
			c-110.7,0.1-197.2,86.8-197.1,197.4c0,110.4,87,197,197.7,196.9C1208,1443.6,1294.7,1356.8,1294.6,1246.2z" style="fill:#FFFFFF"/><path d="M488.9,1572.3c-141.4-41.2-276.8-92.5-383.8-198.2c-15.9-15.7-29.7-34.2-41.5-53.2
			c-32.5-52.1-29.8-104.2,4.1-154.9c30.5-45.7,72.2-79.6,117.7-109c90.2-58.2,189.6-95,292.4-123.7c11.1-3.1,15.8-0.5,20.2,11.2
			c36.5,97.3,74.2,194.3,111.1,291.5c2.6,6.8,4,16.1,1.6,22.6c-38.5,102.3-77.7,204.2-116.8,306.3
			C493.1,1566.5,491.7,1568,488.9,1572.3z" style="fill:#FFFFFF"/><path d="M1075.7,1938.1c-44.6,37.5-87.8,76.9-134.3,112.1c-73,55.3-151.3,101.9-242.4,121.1
			c-26.3,5.6-54.3,7.6-81,5.3c-51.7-4.5-85.5-36-107.8-81.2c-24.2-49.2-32.6-102.3-35.3-156.1c-5.2-103.7,12.1-204.9,36.9-305.1
			c3.3-13.3,8.1-17.4,23.3-15c102.2,16.1,204.7,30.7,307,46.3c7.7,1.2,17.1,4.7,21.7,10.3c69.5,83.9,138.3,168.4,207.3,252.8
			c0.8,1,1.1,2.4,1.6,3.6C1073.7,1934.3,1074.7,1936.2,1075.7,1938.1z" style="fill:#FFFFFF"/><path d="M1723.6,1884.8c-2.7,63.4-6.6,122.8-27.3,179.8c-35.7,97.9-100.1,132.5-201.7,107.7
			c-77.6-18.9-146.5-56.1-209.3-103.7c-50.8-38.5-97.8-81.9-146.7-122.8c-10.7-9-9.1-15.3-0.6-25.8c63.9-79,127.2-158.5,189.9-238.5
			c8.5-10.8,16.8-17.6,30.5-18.7c104-8.4,207-23.7,308.5-48.4c11.8-2.9,17.8,1.6,19.6,12.7c11.2,68.5,22.6,137,33.2,205.6
			C1722.5,1851.1,1722.5,1869.8,1723.6,1884.8z" style="fill:#FFFFFF"/><path d="M1071.9,567.4c-6.9,7.4-13.5,13.8-19.3,20.9c-60.1,73.6-120.5,146.8-179.5,221.2
			c-12.4,15.7-24,23.2-44.9,26.1c-94.6,12.9-188.7,29-283,44.1c-7.8,1.2-15.5,3.2-26.2,5.5c-3.5-12.8-7.3-25.1-10.3-37.7
			c-22.1-91.1-36.6-183.3-33.7-277.4c1.6-51.1,8-101.7,27-149.9c35.6-90,95.3-110.9,179-96.5c83,14.3,155.9,53.2,222.7,102.2
			c54.5,40,105,85.5,157.1,128.7C1064.6,557.8,1067.5,562.3,1071.9,567.4z" style="fill:#FFFFFF"/><path d="M1676.2,885.7c-43-8.6-84.9-18.7-127.3-25.2c-64.3-10-128.9-17.2-193.3-26.5c-8.3-1.2-18.3-5.3-23.3-11.5
			c-67.8-82.7-135-166-202.2-249.2c-1.6-2-2.7-4.3-5.4-8.6c20.5-19.1,40.4-38.5,61.1-56.9c75.6-66.9,155.8-127.6,251-163.6
			c37.3-14.1,78-22.3,117.7-25.8c51.4-4.5,90.5,21.1,117.2,65.1c27.5,45.4,38.3,95.9,43.4,147.6c11.3,115.7-6,228.8-34.3,340.7
			C1679.8,876.2,1678,880.4,1676.2,885.7z" style="fill:#FFFFFF"/><path d="M1703.5,931.1c78.9,20.8,153.8,47.1,225.3,82.6c61.1,30.3,118.8,65.6,166.5,115.1
			c26.6,27.6,48.3,58.1,56.2,96.8c6.6,32.4-2,61.9-17.7,89.6c-31.5,55.3-79.9,93.7-132.2,127.4c-86.7,55.8-181.9,92.7-280.5,121.4
			c-3.8,1.1-7.8,1.1-12.8,1.8c-2.2-4.8-4.5-9.4-6.4-14.2c-37.2-94.2-74-188.7-112-282.6c-6.2-15.2-7-27-0.7-42.8
			c36.7-91.6,71.8-183.8,107.4-275.9C1698.8,944.3,1700.9,938.2,1703.5,931.1z" style="fill:#FFFFFF"/><path d="M1674.6,1571.9c-37.2,18.9-252,54.8-303.1,52.5c63.1-109.6,126.4-219.5,192.8-335
			C1601.9,1385.5,1638.1,1478.4,1674.6,1571.9z" style="fill:#FFFFFF"/><path d="M1291.1,1672c-58.6,83.6-119.9,161.5-190.2,235.7c-70.9-74.1-134.7-151.4-194.7-235.7
			C1036.1,1672,1161.7,1672,1291.1,1672z" style="fill:#FFFFFF"/><path d="M828.2,1631.7c-102-15.7-200.3-30.8-302.1-46.4c28.8-102.9,65.4-195.9,107.1-289
			C697.9,1407.6,761.4,1516.8,828.2,1631.7z" style="fill:#FFFFFF"/><path d="M1667,921.9c-27.6,96.9-63.8,188.2-105.2,279.2c-64.1-110.1-127.2-218.5-191.9-329.6
			C1470.1,881.8,1568.2,896.6,1667,921.9z" style="fill:#FFFFFF"/><path d="M1289.5,824.8c-129.4,0-254.8,0-383.5,0c58.1-81.9,121.1-158.1,191.9-232.2
			C1168.7,664.6,1229.8,742.5,1289.5,824.8z" style="fill:#FFFFFF"/><path d="M824.5,870.9c-64.5,111.4-127,219.4-191.1,330.2c-41.7-90.1-76.2-182.4-105.1-280
			C626.1,895.4,724.1,882.5,824.5,870.9z" style="fill:#FFFFFF"/><path d="M1294.6,1246.2c0.2,110.5-86.6,197.4-197.2,197.5c-110.7,0.1-197.7-86.5-197.7-196.9
			c0-110.6,86.5-197.3,197.1-197.4C1207.5,1049.2,1294.4,1135.7,1294.6,1246.2z M1097.6,1408.7c89.2-0.1,162.5-73.6,162.3-162.7
			c-0.2-88.6-74.7-162.6-163.3-162.3c-88.8,0.4-162.6,74.5-162.5,163.2C934.3,1335.8,1008.1,1408.9,1097.6,1408.7z" style="fill:#474747"/><path d="M1097.6,1408.7c-89.5,0.1-163.3-73-163.4-161.7c-0.1-88.7,73.7-162.9,162.5-163.2
			c88.6-0.4,163.1,73.6,163.3,162.3C1260.1,1335.2,1186.8,1408.6,1097.6,1408.7z" style="fill:#FFFFFF"/></g></g></svg>