<svg id="ebef793b-cffe-4fe1-ac76-7bc12ca6afa0" data-name="Слой 1" xmlns="http://www.w3.org/2000/svg" viewBox="0 0 2485.88 2249.34"><title>sketch</title><path id="e62a04bf-3a96-409f-a3fb-c0c895581bc8" data-name="a" d="M508,813.13l739.42,1447.26L4.56,813.13Z" transform="translate(-4.56 -11.05)" fill="#ea6c00" fill-rule="evenodd"/><path id="b6dc3bd2-b9f1-40dc-bef7-2d6b3969c32c" data-name="b" d="M1987,813.13,1247.61,2260.39,2490.44,813.13Z" transform="translate(-4.56 -11.05)" fill="#ea6c00" fill-rule="evenodd"/><path id="f6694550-8ed6-4a5d-bb64-80bbb2778711" data-name="c" d="M508,813.13H1986.79L1247.37,2260.39Z" transform="translate(-4.56 -11.05)" fill="#fdad00" fill-rule="evenodd"/><path id="e35ecc63-2b12-491c-bc9f-7533e5fbfb63" data-name="d" d="M1247.37,11.05,546.86,85.1,508,813.13Z" transform="translate(-4.56 -11.05)" fill="#fdd231" fill-rule="evenodd"/><path id="bc9f7a15-839b-4a15-9d31-087f2ecbf085" data-name="e" d="M1247.37,11.05l700.5,74.05,38.92,728Z" transform="translate(-4.56 -11.05)" fill="#fdd231" fill-rule="evenodd"/><path id="a080acff-b19a-4b2d-b63a-3e6574a9ff47" data-name="f" d="M2490.44,813.13l-542.33-728,38.92,728Z" transform="translate(-4.56 -11.05)" fill="#fdad00" fill-rule="evenodd"/><path id="eff8272a-cf6c-4c33-961d-1c3856de08a7" data-name="g" d="M4.56,813.13l542.33-728L508,813.13Z" transform="translate(-4.56 -11.05)" fill="#fdad00" fill-rule="evenodd"/><path id="e639ae9e-d9cf-4315-9491-87973c6ae426" data-name="h" d="M1247.37,11.05,508,813.13H1986.79Z" transform="translate(-4.56 -11.05)" fill="#feeeb7" fill-rule="evenodd"/></svg>