<?xml version="1.0" encoding="utf-8"?>
<!-- Generator: Adobe Illustrator 27.5.0, SVG Export Plug-In . SVG Version: 6.00 Build 0)  -->
<svg version="1.1" baseProfile="tiny" id="Слой_1"
	 xmlns="http://www.w3.org/2000/svg" xmlns:xlink="http://www.w3.org/1999/xlink" x="0px" y="0px" viewBox="0 0 283.5 283.5"
	 overflow="visible" xml:space="preserve">
<path fill="#FFFFFF" d="M36.4,88.9c-0.2,33.8-0.4,67.6-0.5,101.4l91.1,44.2V46.9l-26.7,11.5l-0.5,132l-10.4-3.8l-0.5-120L63.6,78
	v100.9l-7.2-2.5l-1-94.6L36.4,88.9z"/>
<path fill="#FFFFFF" d="M141.8,50.5V135l113.5,1.5V86.7L141.8,50.5z M239.6,113.9l-71.5-9V91.9l71.5,13.8V113.9z"/>
<path fill="#FFFFFF" d="M138.3,147.1V232l117-36.5v-49.9L138.3,147.1z M236.1,175.5l-71.5,13.2v-13.2l71.5-7.6V175.5z"/>
</svg>
