<svg xmlns="http://www.w3.org/2000/svg" xmlnsXlink="http://www.w3.org/1999/xlink" aria-hidden="true" role="img" class="iconify iconify--ph" width="32" height="32" preserveAspectRatio="xMidYMid meet" viewBox="0 0 256 256"><path d="M200 48h-64V16a8 8 0 0 0-16 0v32H56a32.1 32.1 0 0 0-32 32v112a32.1 32.1 0 0 0 32 32h144a32.1 32.1 0 0 0 32-32V80a32.1 32.1 0 0 0-32-32zM72 108a12 12 0 1 1 12 12a12 12 0 0 1-12-12zm28 76h-8a16 16 0 0 1 0-32h8zm40 0h-24v-32h24zm24 0h-8v-32h8a16 16 0 0 1 0 32zm8-64a12 12 0 1 1 12-12a12 12 0 0 1-12 12z" fill="currentColor"></path></svg>